<svg id="Layer_1" data-name="Layer 1" xmlns="http://www.w3.org/2000/svg" viewBox="0 0 69.6 82.17"><defs><style>.cls-1{fill:#900000;}</style></defs><title>icon-facetarrow-down</title><path class="cls-1" d="M40.06,5.26V64.2L60.62,43.65a5.26,5.26,0,0,1,7.44,7.44L38.52,80.62a3.33,3.33,0,0,1-.39.36l-.17.13-.24.17-.22.14-.22.13-.24.11-.23.11-.23.08-.25.09a2.1,2.1,0,0,1-.24.06l-.26.07-.29,0a1.46,1.46,0,0,1-.22,0,4.52,4.52,0,0,1-1,0,1.81,1.81,0,0,1-.23,0l-.28,0L33.51,82a2.1,2.1,0,0,1-.24-.06L33,81.85l-.23-.08-.24-.11-.23-.11-.22-.13-.22-.14c-.08,0-.16-.12-.24-.18L31.47,81a4.49,4.49,0,0,1-.39-.36L1.54,51.09A5.26,5.26,0,0,1,9,43.65L29.54,64.2V5.26a5.26,5.26,0,0,1,10.52,0Z"/></svg>