<svg id="Layer_1" data-name="Layer 1" xmlns="http://www.w3.org/2000/svg" viewBox="0 0 63.85 61.22"><defs><style>.cls-1{fill:#f3ae4c;}</style></defs><title>icon-star</title><path class="cls-1" d="M36.41,2.79l6,12.14a5,5,0,0,0,3.77,2.73l13.4,1.95a5,5,0,0,1,2.77,8.53l-9.7,9.45A5,5,0,0,0,51.21,42l2.28,13.34a5,5,0,0,1-7.25,5.27l-12-6.3a5,5,0,0,0-4.65,0l-12,6.3a5,5,0,0,1-7.26-5.27L12.65,42a5,5,0,0,0-1.44-4.43L1.52,28.14a5,5,0,0,1,2.77-8.53l13.4-1.95a5,5,0,0,0,3.76-2.73l6-12.14A5,5,0,0,1,36.41,2.79Z"/></svg>