<svg id="Layer_1" data-name="Layer 1" xmlns="http://www.w3.org/2000/svg" viewBox="0 0 34 34"><defs><style>.cls-1{fill:#979797;stroke:#c8c8c8;stroke-miterlimit:10;opacity:0.88;}.cls-2{fill:#fff;}</style></defs><title>icon-image-zoom</title><circle class="cls-1" cx="17" cy="17" r="16.5"/><path class="cls-2" d="M25.22,23.88,21.73,20.4a6.63,6.63,0,0,0,.49-.69l.18-.31c.11-.21.21-.43.31-.65A7.19,7.19,0,0,0,23.2,17a6,6,0,0,0,.08-.74c0-.13,0-.25,0-.38a7.39,7.39,0,0,0-7.4-7.38h-.38a6,6,0,0,0-.74.08A7.32,7.32,0,0,0,13,9.08a6.49,6.49,0,0,0-.65.31l-.31.18a6.56,6.56,0,0,0-.87.62,5.8,5.8,0,0,0-.52.47,6,6,0,0,0-.48.53A7.3,7.3,0,0,0,8.5,15.88c0,.13,0,.25,0,.38a6,6,0,0,0,.08.74,7.19,7.19,0,0,0,.49,1.75c.09.22.2.44.31.65l.18.31a7.38,7.38,0,0,0,2.49,2.48l.31.18a6.49,6.49,0,0,0,.65.31,7.83,7.83,0,0,0,1.75.5c.24,0,.49.06.74.07h.38a7.4,7.4,0,0,0,4.5-1.52l3.49,3.48a.94.94,0,0,0,.67.28.92.92,0,0,0,.67-.28A1,1,0,0,0,25.22,23.88Zm-15.2-8a5.88,5.88,0,1,1,5.87,5.87A5.88,5.88,0,0,1,10,15.88Z"/><path class="cls-2" d="M18.55,15.12h-1.9V13.23a.76.76,0,1,0-1.51,0v1.89h-1.9a.76.76,0,1,0,0,1.52h1.9v1.89a.76.76,0,1,0,1.51,0V16.64h1.9a.76.76,0,1,0,0-1.52Z"/></svg>