<svg id="Layer_1" data-name="Layer 1" xmlns="http://www.w3.org/2000/svg" viewBox="0 0 99.88 90.96"><defs><style>.cls-1{fill:#fff;}</style></defs><title>icon-doublearrow-left-white</title><path class="cls-1" d="M38,3.05l-35,35A10.53,10.53,0,0,0,3,52.88l35,35A10.44,10.44,0,1,0,52.78,73.14L25.1,45.46,52.78,17.79A10.44,10.44,0,0,0,38,3.05" transform="translate(0.05 0.02)"/><path class="cls-1" d="M82,3.05l-35,35a10.53,10.53,0,0,0,0,14.83l35,35A10.44,10.44,0,1,0,96.78,73.14L69.1,45.46,96.78,17.79A10.44,10.44,0,0,0,82,3.05" transform="translate(0.05 0.02)"/></svg>